HIERARCHY
ROOT root
{
	OFFSET	0	13.1	24.9
	CHANNELS 6  Xposition Yposition Zposition Xrotation Yrotation Zrotation
	JOINT spine_1
	{
		OFFSET	0	9.99999	0
		CHANNELS 3  Xrotation Yrotation Zrotation
		JOINT spine_2
		{
			OFFSET	0	112	-10
			CHANNELS 3  Xrotation Yrotation Zrotation
			JOINT spine_3
			{
				OFFSET	0	206.5	19.3
				CHANNELS 3  Xrotation Yrotation Zrotation
				JOINT spine_4
				{
					OFFSET	0	110.4	14.6
					CHANNELS 3  Xrotation Yrotation Zrotation
					JOINT neck_1
					{
						OFFSET	0	71.8	-50.3
						CHANNELS 3  Xrotation Yrotation Zrotation
						JOINT neck_2
						{
							OFFSET	0	86.2	-25.8
							CHANNELS 3  Xrotation Yrotation Zrotation
							JOINT head_ee
							{
								OFFSET	0	179.8	-8.7
								CHANNELS 3  Xrotation Yrotation Zrotation
								End Site
								{
									OFFSET	1	0	0
								}
							}
						}
					}
					JOINT left_clavicle
					{
						OFFSET	-43.2	22.4	-70.8
						CHANNELS 3  Xrotation Yrotation Zrotation
						JOINT left_shoulder
						{
							OFFSET	-93.9	-5.79999	48.7
							CHANNELS 3  Xrotation Yrotation Zrotation
							JOINT left_elbow
							{
								OFFSET	-291.4	-30.8	15.2
								CHANNELS 3  Xrotation Yrotation Zrotation
								JOINT left_lowarm_twist
								{
									OFFSET	-110.7	-3.89999	13.6
									CHANNELS 3  Xrotation Yrotation Zrotation
									JOINT left_hand
									{
										OFFSET	-110.7	-3.89999	13.6
										CHANNELS 3  Xrotation Yrotation Zrotation
										JOINT left_ee
										{
											OFFSET	-80.8	-5.10001	12.1
											CHANNELS 3  Xrotation Yrotation Zrotation
											End Site
											{
												OFFSET	1	0	0
											}
										}
									}
								}
							}
						}
					}
					JOINT right_clavicle
					{
						OFFSET	43.2	22.4	-70.8
						CHANNELS 3  Xrotation Yrotation Zrotation
						JOINT right_shoulder
						{
							OFFSET	93.9	-5.79999	48.7
							CHANNELS 3  Xrotation Yrotation Zrotation
							JOINT right_elbow
							{
								OFFSET	291.4	-30.8	15.2
								CHANNELS 3  Xrotation Yrotation Zrotation
								JOINT right_lowarm_twist
								{
									OFFSET	110.7	-3.89999	13.6
									CHANNELS 3  Xrotation Yrotation Zrotation
									JOINT right_hand
									{
										OFFSET	110.7	-3.89999	13.6
										CHANNELS 3  Xrotation Yrotation Zrotation
										JOINT right_ee
										{
											OFFSET	80.8	-5.10001	12.1
											CHANNELS 3  Xrotation Yrotation Zrotation
											End Site
											{
												OFFSET	1	0	0
											}
										}
									}
								}
							}
						}
					}
				}
			}
		}
	}
	JOINT left_hip
	{
		OFFSET	-82.8	-127.5	0.300001
		CHANNELS 3  Xrotation Yrotation Zrotation
		JOINT left_knee
		{
			OFFSET	-28.2	-396.7	2.2
			CHANNELS 3  Xrotation Yrotation Zrotation
			JOINT left_ankle
			{
				OFFSET	-11.7	-411.3	35.4
				CHANNELS 3  Xrotation Yrotation Zrotation
				JOINT left_toes
				{
					OFFSET	0	-60	-88.6
					CHANNELS 3  Xrotation Yrotation Zrotation
					JOINT left_foot_ee
					{
						OFFSET	-22.5	-16.5	-42.2
						CHANNELS 3  Xrotation Yrotation Zrotation
						End Site
						{
							OFFSET	1	0	0
						}
					}
				}
			}
		}
	}
	JOINT right_hip
	{
		OFFSET	82.8	-127.5	0.300001
		CHANNELS 3  Xrotation Yrotation Zrotation
		JOINT right_knee
		{
			OFFSET	28.2	-396.7	2.2
			CHANNELS 3  Xrotation Yrotation Zrotation
			JOINT right_ankle
			{
				OFFSET	11.7	-411.3	35.4
				CHANNELS 3  Xrotation Yrotation Zrotation
				JOINT right_toes
				{
					OFFSET	0	-60	-88.6
					CHANNELS 3  Xrotation Yrotation Zrotation
					JOINT right_foot_ee
					{
						OFFSET	22.5	-16.5	-42.2
						CHANNELS 3  Xrotation Yrotation Zrotation
						End Site
						{
							OFFSET	1	0	0
						}
					}
				}
			}
		}
	}
}
MOTION
Frames: 15
Frame Time: 0.02
3471.75809988 732.481 -1538.2432069 153.908985054 83.090036182 -151.978478338 -1.91542 0.122693 -1.05107 -1.91482 0.189323 -1.04114 -1.91788 0.436474 -0.964007 -1.91907 0.278758 -1.02083 -11.2715 5.18669 -1.66883 -11.3159 10.9026 -0.209556 -0.0 0.0 -0.0 7.21028 16.8427 13.338 -12.5548 -18.5828 66.9193 0.397924 -11.1514 0.0388464 36.0099 -0.158156 -4.5225 -4.97709 25.5483 -18.1609 -0.0 0.0 -0.0 11.2255 10.5368 -22.5362 62.3738 -60.6824 -30.8752 1.03563 27.1581 -0.25015 60.261 1.79722 7.13195 -9.30149 -13.2674 72.4071 0.0 0.0 0.0 7.76291 1.47218 -12.9808 -12.6386 0.310707 1.91078 29.2699 3.37595 -3.81416 -12.6027 0.0 0.0 -0.0 0.0 -0.0 1.92394 8.18285 -8.5124 -28.9836 -0.0816521 -4.39999 39.4906 -8.81386 4.82388 -18.8918 0.0 0.0 0.0 0.0 0.0 
3473.8605503 732.481 -1541.52214224 145.142130055 84.6881019568 -143.162573238 -1.91542 0.122693 -1.05107 -1.91482 0.189323 -1.04114 -1.91788 0.436474 -0.964007 -1.91907 0.278758 -1.02083 -11.2715 5.18669 -1.66883 -11.3159 10.9026 -0.209556 -0.0 0.0 -0.0 7.21028 16.8427 13.338 -12.5548 -18.5828 66.9193 0.397924 -11.1514 0.0388464 36.0099 -0.158156 -4.5225 -4.97709 25.5483 -18.1609 -0.0 0.0 -0.0 11.2255 10.5368 -22.5362 62.3738 -60.6824 -30.8752 1.03563 27.1581 -0.25015 60.261 1.79722 7.13195 -9.30149 -13.2674 72.4071 0.0 0.0 0.0 7.76291 1.47218 -12.9808 -12.6386 0.310707 1.91078 29.2699 3.37595 -3.81416 -12.6027 0.0 0.0 -0.0 0.0 -0.0 1.92394 8.18285 -8.5124 -28.9836 -0.0816521 -4.39999 39.4906 -8.81386 4.82388 -18.8918 0.0 0.0 0.0 0.0 0.0 
3473.71529687 732.481 -1541.30293712 145.894758925 84.5852207825 -143.918511223 -1.91542 0.122693 -1.05107 -1.91482 0.189323 -1.04114 -1.91788 0.436474 -0.964007 -1.91907 0.278758 -1.02083 -11.2715 5.18669 -1.66883 -11.3159 10.9026 -0.209556 -0.0 0.0 -0.0 7.21028 16.8427 13.338 -12.5548 -18.5828 66.9193 0.397924 -11.1514 0.0388464 36.0099 -0.158156 -4.5225 -4.97709 25.5483 -18.1609 -0.0 0.0 -0.0 11.2255 10.5368 -22.5362 62.3738 -60.6824 -30.8752 1.03563 27.1581 -0.25015 60.261 1.79722 7.13195 -9.30149 -13.2674 72.4071 0.0 0.0 0.0 7.76291 1.47218 -12.9808 -12.6386 0.310707 1.91078 29.2699 3.37595 -3.81416 -12.6027 0.0 0.0 -0.0 0.0 -0.0 1.92394 8.18285 -8.5124 -28.9836 -0.0816521 -4.39999 39.4906 -8.81386 4.82388 -18.8918 0.0 0.0 0.0 0.0 0.0 
3463.08808223 733.62 -1534.66390218 142.77017323 82.2211083097 -141.619012037 -2.35057 0.321658 -0.718576 -2.35036 0.36673 -0.696653 -2.35483 0.529374 -0.582737 -2.35504 0.4307 -0.659026 -11.1905 5.02857 -1.80667 -11.2303 10.6934 -0.393663 -0.0 0.0 -0.0 7.19453 16.4218 13.3437 -13.6845 -18.2035 66.3843 0.310303 -8.73902 0.0237105 36.9137 -0.198546 -4.63076 -5.24356 27.495 -18.2987 -0.0 0.0 -0.0 11.204 11.937 -22.472 59.0688 -57.1446 -35.014 1.07331 27.9983 -0.267598 62.0375 1.95865 7.29264 -9.35825 -13.827 72.2836 0.0 0.0 0.0 12.7364 0.675003 -12.4258 -16.1654 0.321588 2.45168 22.8467 3.30375 -3.08319 -11.715 0.0 0.0 -0.0 0.0 -0.0 -3.15653 8.21571 -7.25205 -23.2267 -0.243384 -3.53167 37.2762 -7.61229 4.61783 -20.4461 0.0 0.0 0.0 0.0 0.0 
3450.27905448 734.863 -1526.80594916 146.702136124 79.6861626762 -146.435340003 -2.82894 0.439376 -0.37035 -2.82898 0.462052 -0.341641 -2.83193 0.534604 -0.210731 -2.83165 0.494614 -0.292519 -11.238 3.9228 -2.74257 -11.2526 9.21652 -1.59494 -0.0 0.0 -0.0 7.0777 16.2636 13.1639 -15.0985 -17.6654 66.2097 0.244514 -6.90646 0.0147548 38.8022 -0.288431 -4.85487 -5.19716 28.8178 -17.0359 -0.0 0.0 -0.0 11.3265 12.9417 -22.7278 53.4029 -53.9034 -41.6603 1.25097 31.785 -0.356185 63.4574 2.09121 7.41745 -9.43617 -14.5919 72.0786 0.0 0.0 0.0 15.1188 -1.164 -11.6965 -21.0673 0.281426 3.20251 17.0368 3.42912 -2.36242 -10.6868 0.0 0.0 -0.0 0.0 -0.0 -7.27711 8.62748 -6.25522 -15.8079 -0.322002 -2.39684 37.7951 -6.85938 4.6636 -21.3842 0.0 0.0 0.0 0.0 0.0 
3436.98144406 735.84 -1522.40023759 148.975766124 76.9915746368 -149.629622626 -3.15728 0.477857 -0.25739 -3.15737 0.493267 -0.226461 -3.15956 0.535529 -0.0883402 -3.1592 0.514857 -0.171811 -11.1373 4.67842 -2.72321 -11.1633 10.6334 -1.38051 -0.0 0.0 -0.0 6.98454 16.3255 13.0074 -16.2024 -17.0948 65.8038 0.205496 -5.81265 0.0104328 40.2682 -0.363288 -5.02677 -5.11944 29.1344 -16.3583 -0.0 0.0 -0.0 11.4395 14.994 -22.9223 55.4806 -53.0682 -40.4147 1.2324 31.4027 -0.346456 64.2624 2.16775 7.48676 -9.48166 -14.9931 72.0618 0.0 0.0 0.0 18.2116 -2.84569 -11.0286 -25.584 0.187723 3.88911 12.0589 4.46952 -1.70428 -10.4172 0.0 0.0 -0.0 0.0 -0.0 -11.2609 8.34511 -5.7495 -11.1481 -0.296104 -1.68254 38.9435 -6.18302 4.76603 -21.8947 0.0 0.0 0.0 0.0 0.0 
3426.43579016 733.178 -1515.41425169 153.731708317 75.5188376502 -154.458614083 -3.29766 0.53888 -0.0805128 -3.29782 0.542911 -0.0460583 -3.29848 0.535595 0.10006 -3.29808 0.544676 0.0142145 -11.875 4.12038 -2.17893 -11.9042 9.2153 -0.943823 -0.0 0.0 -0.0 6.71877 16.1526 12.5845 -16.885 -16.6742 66.2814 0.187341 -5.30217 0.00867452 40.8279 -0.393021 -5.09188 -5.04532 29.1631 -15.9188 -0.0 0.0 -0.0 11.873 15.467 -23.8908 52.4574 -51.5387 -45.4923 1.52039 36.983 -0.508493 64.86 2.22518 7.53751 -9.52338 -15.3604 72.0354 0.0 0.0 0.0 18.5996 -4.89717 -10.4323 -26.1378 0.172517 3.97273 9.35821 4.67757 -1.33525 -8.97088 0.0 0.0 -0.0 0.0 -0.0 -12.5776 8.27992 -5.65151 -7.78588 -0.2414 -1.1696 38.134 -6.51938 4.69381 -21.8389 0.0 0.0 0.0 0.0 0.0 
3409.94536232 727.723 -1514.14513593 151.757046936 73.9884776579 -152.691679722 -3.43494 0.482533 -0.0541896 -3.43507 0.485003 -0.0233743 -3.43545 0.473483 0.10765 -3.43514 0.484542 0.0315191 -12.7117 4.27126 -2.28462 -12.7519 9.56008 -0.931758 -0.0 0.0 -0.0 6.56758 16.0403 12.3442 -18.3213 -16.3076 65.5033 0.179533 -5.08239 0.0079679 42.1541 -0.466024 -5.24502 -4.82788 29.0798 -14.7583 -0.0 0.0 -0.0 12.0938 16.3354 -24.3602 48.0076 -48.6046 -51.0603 1.76886 41.2225 -0.665314 65.2578 2.26371 7.57096 -9.54803 -15.5912 71.9747 0.0 0.0 0.0 20.5979 -6.82215 -8.81957 -31.9953 -0.0375171 4.84676 6.50345 7.20842 -0.935132 -8.18108 0.0 0.0 -0.0 0.0 -0.0 -14.2244 9.3625 -5.81871 -9.15683 -0.267341 -1.37837 38.3718 -6.53825 4.71538 -21.7638 0.0 0.0 0.0 0.0 0.0 
3401.04978321 726.249 -1509.81635244 155.08294692 72.3746371194 -156.42198289 -3.55162 0.452444 -0.0382209 -3.55174 0.453959 -0.00935268 -3.55196 0.439585 0.113719 -3.5517 0.452028 0.0428664 -12.269 3.60073 -2.14341 -12.2927 8.20295 -1.02725 -0.0 0.0 -0.0 6.49822 15.8759 12.2398 -19.1329 -16.1045 65.5142 0.174482 -4.94011 0.00752675 42.0641 -0.460954 -5.23467 -4.77366 27.6189 -15.4895 -0.0 0.0 -0.0 12.427 17.9434 -25.0469 50.0473 -49.17 -52.0392 1.94691 43.9582 -0.785839 65.6117 2.29818 7.60049 -9.56592 -15.784 71.8551 0.0 0.0 0.0 20.6066 -7.89105 -7.99819 -27.9353 0.117593 4.24312 2.71696 5.21242 -0.395464 -7.43095 0.0 0.0 -0.0 0.0 -0.0 -14.8805 8.2392 -6.03224 -5.14721 -0.177442 -0.769751 38.6639 -6.64592 4.7419 -21.6904 0.0 0.0 0.0 0.0 0.0 
3388.71083523 721.081 -1510.02663794 152.584625581 71.9501731102 -153.98651606 -3.92672 0.433582 0.00283062 -3.92683 0.432524 0.0304154 -3.92673 0.407232 0.148877 -3.92651 0.425633 0.0826933 -12.636 3.53431 -2.55479 -12.6583 8.33234 -1.41419 -0.0 0.0 -0.0 6.29731 16.0079 11.9053 -20.0782 -15.8335 65.3895 0.193808 -5.48411 0.00928231 42.4416 -0.482317 -5.278 -4.76078 27.7554 -15.3194 -0.0 0.0 -0.0 12.6934 19.6435 -25.5581 50.3061 -47.2655 -54.056 2.02257 45.0498 -0.838879 66.0114 2.33734 7.63361 -9.5818 -15.9204 71.8458 0.0 0.0 0.0 22.2214 -8.91566 -7.45027 -28.435 0.10082 4.31798 0.322111 6.03701 -0.0471422 -7.12702 0.0 0.0 -0.0 0.0 -0.0 -16.4927 8.34734 -6.10015 -7.30635 -0.231148 -1.09673 38.3329 -6.65077 4.71209 -21.6267 0.0 0.0 0.0 0.0 0.0 
3378.69137549 715.516 -1504.60402772 155.048963573 71.1831107253 -156.467322905 -3.88102 0.0834255 0.195687 -3.881 0.0708044 0.200599 -3.88071 0.0127196 0.212347 -3.88077 0.0460961 0.207674 -13.5569 4.10785 -1.80476 -13.6036 8.94104 -0.45398 -0.0 0.0 -0.0 6.14122 15.9296 11.6549 -21.0325 -14.9875 65.5893 0.201476 -5.6997 0.0100295 43.5938 -0.549267 -5.40931 -4.79604 28.2136 -15.1957 -0.0 0.0 -0.0 12.2768 19.9569 -24.5735 47.2641 -46.5646 -57.1205 2.28434 48.526 -1.02975 66.8811 2.42333 7.70469 -9.6551 -16.5886 71.6684 0.0 0.0 0.0 24.2794 -9.08478 -6.20045 -25.8365 0.18089 3.92726 -2.81993 6.30588 0.415585 -7.30597 0.0 0.0 -0.0 0.0 -0.0 -16.988 8.3472 -6.26972 -5.00636 -0.17351 -0.748493 40.6147 -7.15816 4.91441 -20.5676 0.0 0.0 0.0 0.0 0.0 
3366.00013721 704.004 -1498.57115926 155.36599817 69.6641893709 -157.040440925 -3.92881 -0.185626 0.285566 -3.92879 -0.203421 0.273176 -3.92979 -0.271065 0.206226 -3.92978 -0.235093 0.246447 -13.858 4.06075 -2.96585 -13.9002 9.56014 -1.54921 -0.0 0.0 -0.0 5.88828 16.3434 11.2279 -22.1412 -14.3651 65.8134 0.267805 -7.55706 0.0176868 43.9655 -0.571429 -5.45139 -5.1937 29.1305 -16.7815 -0.0 0.0 -0.0 11.9357 20.6759 -23.7369 46.0247 -44.3368 -58.7826 2.5549 51.6784 -1.2374 65.3356 2.27128 7.57748 -9.62103 -16.1156 72.2307 0.0 0.0 0.0 25.6884 -8.69265 -4.77833 -22.3798 0.259782 3.40275 -5.1125 9.86707 0.756473 -7.76492 0.0 0.0 -0.0 0.0 -0.0 -17.3244 8.39698 -6.45262 -11.1936 -0.296638 -1.68951 41.1929 -10.1922 4.98121 -18.0051 0.0 0.0 0.0 0.0 0.0 
3365.83057483 704.004 -1497.03900694 155.830540802 69.2807714717 -157.536476968 -3.92881 -0.185626 0.285566 -3.92879 -0.203421 0.273176 -3.92979 -0.271065 0.206226 -3.92978 -0.235093 0.246447 -13.858 4.06075 -2.96585 -13.9002 9.56014 -1.54921 -0.0 0.0 -0.0 5.88828 16.3434 11.2279 -22.1412 -14.3651 65.8134 0.267805 -7.55706 0.0176868 43.9655 -0.571429 -5.45139 -5.1937 29.1305 -16.7815 -0.0 0.0 -0.0 11.9357 20.6759 -23.7369 46.0247 -44.3368 -58.7826 2.5549 51.6784 -1.2374 65.3356 2.27128 7.57748 -9.62103 -16.1156 72.2307 0.0 0.0 0.0 25.6884 -8.69265 -4.77833 -22.3798 0.259782 3.40275 -5.1125 9.86707 0.756473 -7.76492 0.0 0.0 -0.0 0.0 -0.0 -17.3244 8.39698 -6.45262 -11.1936 -0.296638 -1.68951 41.1929 -10.1922 4.98121 -18.0051 0.0 0.0 0.0 0.0 0.0 
3330.38942283 673.471 -1490.08797467 158.206618532 70.93361189 -159.725530204 -3.9822 -0.353202 0.638861 -3.98205 -0.393138 0.615092 -3.98636 -0.54847 0.481744 -3.98638 -0.465505 0.562317 -10.6861 4.70639 -2.48705 -10.709 10.5344 -1.18687 -0.0 0.0 -0.0 5.55497 16.4346 10.6886 -23.1334 -13.2078 65.8211 0.241374 -6.81864 0.0143797 49.4211 -0.927676 -6.05166 -5.4986 29.4059 -18.3056 -0.0 0.0 -0.0 12.7734 25.173 -25.2483 36.6447 -23.863 -65.0103 4.18656 64.2381 -2.62887 73.3601 3.09629 8.19208 -8.5413 -16.652 54.3693 0.0 0.0 0.0 29.4778 -7.69171 -3.4564 -14.9457 0.321592 2.26456 -2.8879 16.9066 0.429943 -8.52996 0.0 0.0 -0.0 0.0 -0.0 -13.3122 12.7061 -7.82905 -25.6968 -0.184692 -3.90616 41.9545 -11.3682 5.05647 -6.54217 0.0 0.0 0.0 0.0 0.0 
3303.97603894 656.602 -1475.60495964 157.93839237 73.1361011429 -160.078955926 -3.79503 0.248097 0.67589 -3.7948 0.204586 0.690307 -3.79186 0.00734082 0.719946 -3.79256 0.120948 0.709753 -8.76574 5.69007 -3.99879 -8.74341 13.431 -2.63345 -0.0 0.0 -0.0 5.22761 16.6224 10.16 -21.9699 -13.373 66.5227 0.287926 -8.11754 0.0204306 57.4077 -1.54865 -6.86371 -6.2272 29.6964 -22.2918 -0.0 0.0 -0.0 11.2393 24.3389 -21.8265 27.534 -6.16749 -61.5516 4.45235 65.5894 -2.8696 75.7604 3.35897 8.35295 -6.95217 -16.8722 38.9778 0.0 0.0 0.0 31.5688 -6.24141 -1.72967 -12.7146 0.311293 1.92242 -2.78836 18.6844 0.417151 -8.42776 0.0 0.0 -0.0 0.0 -0.0 -14.9192 18.881 -6.06848 -30.432 -0.0272785 -4.61561 41.6484 -7.80744 5.00449 -1.89929 0.0 0.0 0.0 0.0 0.0 
